<svg width="38" height="40" viewBox="0 0 38 40" fill="none" xmlns="http://www.w3.org/2000/svg">
<g clip-path="url(#clip0_512_122)">
<path d="M26.9556 40C28.627 40 30.2301 39.2976 31.412 38.0474C32.5939 36.7971 33.2579 35.1014 33.2579 33.3333V6.66667C33.2579 4.89856 32.5939 3.20286 31.412 1.95262C30.2301 0.702379 28.627 0 26.9556 0L11.1998 0C9.5283 0 7.92528 0.702379 6.74337 1.95262C5.56145 3.20286 4.89746 4.89856 4.89746 6.66667V33.3333C4.89746 35.1014 5.56145 36.7971 6.74337 38.0474C7.92528 39.2976 9.5283 40 11.1998 40H26.9556ZM8.04862 33.3333V6.66667C8.04862 5.78261 8.38061 4.93476 8.97157 4.30964C9.56253 3.68452 10.364 3.33333 11.1998 3.33333H26.9556C27.7913 3.33333 28.5928 3.68452 29.1838 4.30964C29.7747 4.93476 30.1067 5.78261 30.1067 6.66667V33.3333C30.1067 34.2174 29.7747 35.0652 29.1838 35.6904C28.5928 36.3155 27.7913 36.6667 26.9556 36.6667H11.1998C10.364 36.6667 9.56253 36.3155 8.97157 35.6904C8.38061 35.0652 8.04862 34.2174 8.04862 33.3333Z" fill="#0F8279"/>
<path d="M12.7753 31.6666H25.3799C25.7978 31.6666 26.1985 31.491 26.494 31.1784C26.7895 30.8659 26.9555 30.4419 26.9555 29.9999C26.9555 29.5579 26.7895 29.134 26.494 28.8214C26.1985 28.5088 25.7978 28.3333 25.3799 28.3333H12.7753C12.3574 28.3333 11.9567 28.5088 11.6612 28.8214C11.3657 29.134 11.1997 29.5579 11.1997 29.9999C11.1997 30.4419 11.3657 30.8659 11.6612 31.1784C11.9567 31.491 12.3574 31.6666 12.7753 31.6666Z" fill="#0F8279"/>
<path d="M17.5021 8.33333H20.6533C21.0711 8.33333 21.4719 8.15774 21.7674 7.84518C22.0628 7.53262 22.2288 7.10869 22.2288 6.66667C22.2288 6.22464 22.0628 5.80072 21.7674 5.48816C21.4719 5.17559 21.0711 5 20.6533 5H17.5021C17.0842 5 16.6835 5.17559 16.388 5.48816C16.0925 5.80072 15.9265 6.22464 15.9265 6.66667C15.9265 7.10869 16.0925 7.53262 16.388 7.84518C16.6835 8.15774 17.0842 8.33333 17.5021 8.33333Z" fill="#0F8279"/>
</g>
<defs>
<clipPath id="clip0_512_122">
<rect width="37.8139" height="40" fill="white" transform="translate(0.170654)"/>
</clipPath>
</defs>
</svg>
