<svg width="40" height="40" viewBox="0 0 40 40" fill="none" xmlns="http://www.w3.org/2000/svg">
<g clip-path="url(#clip0_512_108)">
<path fill-rule="evenodd" clip-rule="evenodd" d="M20 0C9 0 0 9 0 20C0 31 9 40 20 40C31 40 40 31 40 20C40 9 31 0 20 0ZM33.8 12H28C27.4 9.4 26.4 7.2 25.2 4.8C28.8 6.2 32 8.6 33.8 12ZM20 4C21.6 6.4 23 9 23.8 12H16.2C17 9.2 18.4 6.4 20 4ZM4.6 24C4.2 22.8 4 21.4 4 20C4 18.6 4.2 17.2 4.6 16H11.4C11.2 17.4 11.2 18.6 11.2 20C11.2 21.4 11.4 22.6 11.4 24H4.6ZM6.2 28H12C12.6 30.6 13.6 32.8 14.8 35.2C11.2 33.8 8 31.4 6.2 28ZM12 12H6.2C8.2 8.6 11.2 6.2 14.8 4.8C13.6 7.2 12.6 9.4 12 12ZM20 36C18.4 33.6 17 31 16.2 28H23.8C23 30.8 21.6 33.6 20 36ZM24.6 24H15.4C15.2 22.6 15 21.4 15 20C15 18.6 15.2 17.4 15.4 16H24.8C25 17.4 25.2 18.6 25.2 20C25.2 21.4 24.8 22.6 24.6 24ZM25.2 35.2C26.4 33 27.4 30.6 28 28H33.8C32 31.4 28.8 33.8 25.2 35.2ZM28.8 24C29 22.6 29 21.4 29 20C29 18.6 28.8 17.4 28.8 16H35.6C36 17.2 36.2 18.6 36.2 20C36.2 21.4 36 22.8 35.6 24H28.8Z" fill="#0F8279"/>
</g>
<defs>
<clipPath id="clip0_512_108">
<rect width="40" height="40" fill="white"/>
</clipPath>
</defs>
</svg>
