<svg width="37" height="32" viewBox="0 0 37 32" fill="none" xmlns="http://www.w3.org/2000/svg">
<path d="M35.2908 6.11359L19.3741 0.59225C18.8347 0.405448 18.2119 0.405448 17.6726 0.59225L1.75586 6.11359C1.05363 6.35721 0.605469 6.87814 0.605469 7.45204C0.605469 8.02497 1.05365 8.54687 1.75586 8.79049L17.6726 14.3128C17.9422 14.4062 18.2328 14.4534 18.5233 14.4534C18.8139 14.4534 19.1044 14.4062 19.3741 14.3128L35.2908 8.79049C35.993 8.54687 36.4412 8.02497 36.4412 7.45204C36.4412 6.87814 35.993 6.35721 35.2908 6.11359ZM18.5233 11.3403L7.31635 7.45205L18.5233 3.56476L29.7303 7.45204L18.5233 11.3403Z" fill="#0F8279"/>
<path d="M36.2514 12.3459C35.7824 11.6064 34.589 11.2906 33.5897 11.6362L18.5237 16.862L3.45778 11.6362C2.45721 11.2896 1.26382 11.6054 0.796094 12.3459C0.32577 13.0854 0.75571 13.9665 1.75629 14.3131L17.673 19.8345C17.9427 19.9279 18.2332 19.9751 18.5237 19.9751C18.8143 19.9751 19.1048 19.9279 19.3745 19.8345L35.2912 14.3131C36.2918 13.9665 36.7217 13.0854 36.2514 12.3459Z" fill="#0F8279"/>
<path d="M36.2514 17.8669C35.7824 17.1274 34.589 16.8116 33.5897 17.1572L18.5237 22.3839L3.45778 17.1572C2.45721 16.8106 1.26382 17.1264 0.796094 17.8669C0.32577 18.6064 0.75571 19.4875 1.75629 19.8341L17.673 25.3564C17.9427 25.4498 18.2332 25.497 18.5237 25.497C18.8143 25.497 19.1048 25.4498 19.3745 25.3564L35.2912 19.8341C36.2918 19.4875 36.7217 18.6064 36.2514 17.8669Z" fill="#0F8279"/>
<path d="M36.2514 23.3891C35.7824 22.6496 34.589 22.3319 33.5897 22.6795L18.5237 27.9052L3.45778 22.6795C2.45721 22.3319 1.26382 22.6496 0.796094 23.3891C0.32577 24.1287 0.75571 25.0097 1.75629 25.3564L17.673 30.8777C17.9427 30.9711 18.2332 31.0183 18.5237 31.0183C18.8143 31.0183 19.1048 30.9711 19.3745 30.8777L35.2912 25.3564C36.2918 25.0097 36.7217 24.1286 36.2514 23.3891Z" fill="#0F8279"/>
</svg>
